<svg width="80" height="64" viewBox="0 0 80 64" fill="none" xmlns="http://www.w3.org/2000/svg">
<path fill-rule="evenodd" clip-rule="evenodd" d="M8.50364 61.1411C8.08523 59.7719 8.85463 58.3224 10.2232 57.9017L74.9831 37.9933C76.3549 37.5716 77.8086 38.3432 78.228 39.7157C78.6464 41.085 77.877 42.5345 76.5085 42.9552L11.7485 62.8635C10.3767 63.2853 8.92305 62.5136 8.50364 61.1411Z" fill="#8750FF"/>
<g style="mix-blend-mode:soft-light" opacity="0.4">
<path fill-rule="evenodd" clip-rule="evenodd" d="M8.50364 61.1411C8.08523 59.7719 8.85463 58.3224 10.2232 57.9017L74.9831 37.9933C76.3549 37.5716 77.8086 38.3432 78.228 39.7157C78.6464 41.085 77.877 42.5345 76.5085 42.9552L11.7485 62.8635C10.3767 63.2853 8.92305 62.5136 8.50364 61.1411Z" fill="black"/>
</g>
<path fill-rule="evenodd" clip-rule="evenodd" d="M61.6877 1.41186L73 38.1907L11.424 57L0.107887 20.2098C-0.0602417 19.7344 -0.0309352 19.2118 0.189299 18.758C0.409534 18.3042 0.802471 17.9568 1.28087 17.7929L59.3569 0.0653739C59.8453 -0.0659943 60.3661 0.00230509 60.8037 0.255111C61.2413 0.507917 61.5595 0.924312 61.6877 1.41186Z" fill="#8750FF"/>
<g style="mix-blend-mode:soft-light">
<path fill-rule="evenodd" clip-rule="evenodd" d="M59.3608 4L69 36.3897L41.7594 45C42.3621 34.6507 41.8043 22.1537 40 10.1116L59.3608 4Z" fill="url(#paint0_linear)"/>
</g>
<path fill-rule="evenodd" clip-rule="evenodd" d="M37.2588 49.5906L47.9567 46.3018L47.9767 46.3674C48.2718 47.333 47.7306 48.3556 46.7679 48.6515L39.5633 50.8664C38.6007 51.1623 37.5811 50.6195 37.286 49.6539L37.266 49.5883L37.2588 49.5906Z" fill="white"/>
<path fill-rule="evenodd" clip-rule="evenodd" d="M31.5495 11.7523C31.9466 11.6303 32.1618 11.1823 32.0303 10.7518C31.8988 10.3214 31.4702 10.0714 31.0731 10.1934C30.676 10.3155 30.4608 10.7634 30.5923 11.1939C30.7238 11.6244 31.1524 11.8744 31.5495 11.7523Z" fill="white"/>
<defs>
<linearGradient id="paint0_linear" x1="66.8508" y1="33.8026" x2="49.9285" y2="5.70257" gradientUnits="userSpaceOnUse">
<stop stop-opacity="0.5"/>
<stop offset="1" stop-opacity="0.01"/>
</linearGradient>
</defs>
</svg>
