<svg width="76" height="64" viewBox="0 0 76 64" fill="none" xmlns="http://www.w3.org/2000/svg">
<path fill-rule="evenodd" clip-rule="evenodd" d="M51.9026 3.80902L54.9454 22.963C55.1321 24.1441 54.8359 25.3501 54.1219 26.3155C53.4079 27.281 52.3346 27.927 51.1381 28.1112L16.8944 33.4128L10.9488 40L10.4267 34.413L8.31639 34.7383C5.82917 35.1187 3.49922 33.4403 3.10742 30.986L0.0553833 11.832C-0.333711 9.37287 1.36882 7.06744 3.85955 6.68074L46.6937 0.0536996C49.1819 -0.32659 51.5124 1.35349 51.9026 3.80902Z" fill="#8750FF"/>
<path fill-rule="evenodd" clip-rule="evenodd" d="M45.241 10.9096L8.98955 16.995C8.51488 17.0467 8.08525 16.6921 8.01104 16.1874C7.93684 15.6826 8.24394 15.2038 8.71048 15.0968L44.965 9.01146C45.2817 8.95866 45.6006 9.09077 45.8016 9.35802C46.0026 9.62527 46.0552 9.98706 45.9396 10.3071C45.824 10.6272 45.5577 10.8568 45.241 10.9096Z" fill="white"/>
<path fill-rule="evenodd" clip-rule="evenodd" d="M45.2448 15.9058L9.03373 21.9885C8.71747 22.0413 8.39897 21.9093 8.19819 21.6421C7.99742 21.375 7.94487 21.0134 8.06036 20.6935C8.17584 20.3735 8.4418 20.144 8.75805 20.0912L44.966 14.0117C45.2817 13.9584 45.6 14.0896 45.801 14.3559C46.002 14.6222 46.0551 14.9832 45.9404 15.3029C45.8256 15.6226 45.5605 15.8524 45.2448 15.9058Z" fill="white"/>
<path fill-rule="evenodd" clip-rule="evenodd" d="M39.3139 21.6913L10.0577 25.9894C9.55854 26.0631 9.09003 25.744 9.01131 25.2765C8.93258 24.809 9.27343 24.3703 9.77263 24.2966L39.0288 20.0015C39.4999 19.9759 39.915 20.289 39.9887 20.7255C40.0623 21.162 39.7705 21.5797 39.3139 21.6913Z" fill="white"/>
<g style="mix-blend-mode:soft-light">
<path fill-rule="evenodd" clip-rule="evenodd" d="M51.9108 3.82478L54.9449 23.0578C55.1323 24.2435 54.8373 25.4544 54.1251 26.424C53.4129 27.3936 52.3418 28.0424 51.1477 28.2273L33.3309 31C33.658 25.9908 33.1453 20.9624 31.8138 16.12C30.5571 11.5648 28.5958 7.23097 26 3.27333L46.7082 0.0539523C49.1926 -0.327993 51.5197 1.35867 51.9108 3.82478Z" fill="url(#paint0_linear)"/>
</g>
<path fill-rule="evenodd" clip-rule="evenodd" d="M35.4782 27.5001L31.1159 46.3926C30.5557 48.8141 32.0797 51.2279 34.524 51.7904L57.624 57.0227L63.0738 64L63.9877 58.4641L66.0635 58.9334C68.5102 59.4916 70.951 57.9815 71.5163 55.5597L75.8848 36.6673C76.4443 34.2403 74.9122 31.8234 72.4613 31.2664L40.9341 24.1142C38.4834 23.5602 36.0423 25.0751 35.4782 27.5001Z" fill="#8750FF"/>
<g style="mix-blend-mode:soft-light">
<path fill-rule="evenodd" clip-rule="evenodd" d="M75.88 36.1954L71.4734 55.4102C70.9032 57.8748 68.4411 59.4117 65.973 58.8436L63.8791 58.366L62.9572 64L57.46 56.899L49 54.9638C51.0857 51.3587 52.7509 47.5268 53.9628 43.5429C55.5927 38.1814 56.3936 32.6029 56.338 27L72.4266 30.6769C73.6187 30.9489 74.6531 31.684 75.3012 32.7196C75.9493 33.7552 76.1575 35.006 75.88 36.1954Z" fill="url(#paint1_linear)"/>
</g>
<path fill-rule="evenodd" clip-rule="evenodd" d="M68.9053 39.9757L43.6941 33.8689C43.2128 33.7519 42.9123 33.244 43.0229 32.7346C43.1335 32.2252 43.6134 31.9072 44.0947 32.0243L69.3059 38.1311C69.7872 38.2481 70.0877 38.756 69.9771 39.2654C69.8665 39.7748 69.3866 40.0928 68.9053 39.9757Z" fill="white"/>
<path fill-rule="evenodd" clip-rule="evenodd" d="M67.8768 43.975L42.6944 37.8676C42.3834 37.7925 42.1338 37.5473 42.0397 37.2245C41.9457 36.9017 42.0213 36.5503 42.2383 36.3026C42.4552 36.0549 42.7805 35.9486 43.0915 36.0237L68.277 42.1279C68.597 42.1933 68.8579 42.4383 68.9574 42.7669C69.0569 43.0956 68.9792 43.4556 68.7548 43.7058C68.5304 43.9561 68.1949 44.0568 67.8799 43.9686L67.8768 43.975Z" fill="white"/>
<path fill-rule="evenodd" clip-rule="evenodd" d="M58.8766 46.977L40.7117 42.8133C40.2182 42.6998 39.9101 42.207 40.0235 41.7128C40.1369 41.2185 40.6289 40.9099 41.1224 41.0235L59.2873 45.1872C59.6065 45.2601 59.8627 45.4981 59.9592 45.8114C60.0558 46.1247 59.9781 46.4659 59.7554 46.7063C59.5328 46.9467 59.199 47.0499 58.8797 46.977H58.8766Z" fill="white"/>
<defs>
<linearGradient id="paint0_linear" x1="56.2372" y1="27.1096" x2="51.1745" y2="-0.953807" gradientUnits="userSpaceOnUse">
<stop/>
<stop offset="1" stop-color="white" stop-opacity="0.01"/>
</linearGradient>
<linearGradient id="paint1_linear" x1="70.7582" y1="68.285" x2="84.2087" y2="37.0261" gradientUnits="userSpaceOnUse">
<stop stop-opacity="0.8"/>
<stop offset="1" stop-color="white" stop-opacity="0.01"/>
</linearGradient>
</defs>
</svg>
