<svg width="73" height="64" viewBox="0 0 73 64" fill="none" xmlns="http://www.w3.org/2000/svg">
<path fill-rule="evenodd" clip-rule="evenodd" d="M73 0L15 35.5667L21.1485 59L73 0Z" fill="#8750FF"/>
<g style="mix-blend-mode:soft-light">
<path fill-rule="evenodd" clip-rule="evenodd" d="M73 0L15 35.5667L21.1485 59L73 0Z" fill="url(#paint0_linear)"/>
</g>
<path fill-rule="evenodd" clip-rule="evenodd" d="M73 0L0 27.6926L14.876 35L73 0Z" fill="#8750FF"/>
<path fill-rule="evenodd" clip-rule="evenodd" d="M73 0L29 45.6561L47.6615 64L73 0Z" fill="#8750FF"/>
<path fill-rule="evenodd" clip-rule="evenodd" d="M21 59L31 47.9731L28.9262 46L21 59Z" fill="#8750FF"/>
<g style="mix-blend-mode:soft-light">
<path fill-rule="evenodd" clip-rule="evenodd" d="M73 0L0 27.6926L14.876 35L73 0Z" fill="url(#paint1_linear)"/>
</g>
<g style="mix-blend-mode:soft-light">
<path fill-rule="evenodd" clip-rule="evenodd" d="M73 0L29 45.6561L47.6615 64L73 0Z" fill="url(#paint2_linear)"/>
</g>
<g style="mix-blend-mode:soft-light" opacity="0.4">
<path fill-rule="evenodd" clip-rule="evenodd" d="M21 59L31 47.9731L28.9262 46L21 59Z" fill="black"/>
</g>
<defs>
<linearGradient id="paint0_linear" x1="15" y1="59" x2="73" y2="59" gradientUnits="userSpaceOnUse">
<stop stop-opacity="0.01"/>
<stop offset="1" stop-opacity="0.8"/>
</linearGradient>
<linearGradient id="paint1_linear" x1="73" y1="35" x2="73" y2="0" gradientUnits="userSpaceOnUse">
<stop stop-opacity="0.8"/>
<stop offset="1" stop-color="white" stop-opacity="0.01"/>
</linearGradient>
<linearGradient id="paint2_linear" x1="78.5754" y1="29.9844" x2="51.7967" y2="14.9388" gradientUnits="userSpaceOnUse">
<stop stop-opacity="0.8"/>
<stop offset="1" stop-color="white" stop-opacity="0.01"/>
</linearGradient>
</defs>
</svg>
