<svg width="54" height="64" viewBox="0 0 54 64" fill="none" xmlns="http://www.w3.org/2000/svg">
<path fill-rule="evenodd" clip-rule="evenodd" d="M54 19.1965C52.6781 29.4814 48.7022 39.2405 42.4667 47.506L30.0144 64L15.383 49.4091C8.05299 42.1067 2.75015 33.0072 0 23.0123C3.03589 21.0142 4.75861 17.5233 4.50342 13.8867C4.41586 12.6526 4.10328 11.4452 3.58126 10.3246L25.5204 0L48.6818 7.13684C47.2275 11.9237 49.4924 17.057 54 19.1902V19.1965Z" fill="#8750FF"/>
<g style="mix-blend-mode:soft-light">
<path fill-rule="evenodd" clip-rule="evenodd" d="M53.9969 19.2327C54.001 19.2417 54.001 19.2521 53.9969 19.2612C52.6707 29.5228 48.6803 39.2608 42.421 47.5108L37.8523 53.5287L29.9148 64L25 59.1445C30.553 50.3899 37.0649 36.3839 36.8839 18.6847C36.8252 13.4009 36.1756 8.14009 34.9472 3L48.6694 7.19991C47.2031 11.975 49.4716 17.1001 53.9969 19.2358V19.2327Z" fill="url(#paint0_linear)"/>
</g>
<path fill-rule="evenodd" clip-rule="evenodd" d="M24.1582 38.9979H24.0738C23.2197 39.0317 22.3988 38.6583 21.8534 37.988L17.6283 32.7888C17.0049 32.0211 16.8308 30.9729 17.1717 30.0391C17.5127 29.1052 18.3168 28.4276 19.2811 28.2614C20.2455 28.0953 21.2236 28.4658 21.8471 29.2335L23.7829 31.6165L33.0149 18.1884C33.5774 17.3718 34.5249 16.9229 35.5005 17.0109C36.476 17.0989 37.3314 17.7103 37.7443 18.6149C38.1573 19.5195 38.0652 20.5799 37.5026 21.3965L26.2066 37.816C25.7345 38.5053 24.9814 38.9399 24.1582 38.9979Z" fill="white"/>
<defs>
<linearGradient id="paint0_linear" x1="55.545" y1="58.712" x2="37.9895" y2="2.52869" gradientUnits="userSpaceOnUse">
<stop stop-opacity="0.8"/>
<stop offset="1" stop-color="white" stop-opacity="0.01"/>
</linearGradient>
</defs>
</svg>
